<svg width="140" height="140" xmlns="http://www.w3.org/2000/svg">
    <g fill="none" fill-rule="evenodd">
        <path fill="#ED2139" d="M0 0h140v140H0z"/>
        <path d="M52.754 44.783h9.738v26.883h11.542V44.783h9.738V109h-9.738V79.335H62.492V109h-9.738V44.783Zm-24.016 64.781c-1.554 0-3.252-.226-5.094-.677-1.843-.451-3.59-1.39-5.245-2.82-1.655-1.428-3.008-3.578-4.06-6.448-1.054-2.87-1.58-6.71-1.58-11.523V65.349c0-3.86.357-7.074 1.072-9.644.714-2.569 1.654-4.624 2.82-6.166 1.165-1.541 2.456-2.694 3.872-3.459 1.416-.764 2.839-1.265 4.267-1.504 1.43-.238 2.745-.357 3.948-.357 1.153 0 2.438.113 3.854.339 1.416.225 2.826.708 4.23 1.447 1.403.74 2.688 1.874 3.853 3.403 1.166 1.529 2.106 3.584 2.82 6.166.715 2.581 1.072 5.84 1.072 9.775v22.747c0 4.762-.552 8.572-1.655 11.43-1.102 2.857-2.494 5.006-4.173 6.447-1.68 1.442-3.415 2.4-5.207 2.877-1.792.476-3.39.714-4.794.714Zm0-7.632c1.93 0 3.359-.727 4.286-2.181.928-1.454 1.391-4.173 1.391-8.159v-28.95c0-4.11-.463-6.937-1.39-8.478-.928-1.542-2.357-2.312-4.287-2.312-1.98 0-3.44.77-4.38 2.312-.94 1.541-1.41 4.367-1.41 8.478v28.95c0 3.986.47 6.705 1.41 8.159.94 1.454 2.4 2.18 4.38 2.18Zm93.946 18.648c-1.228.552-4.381.927-5.459 1.128-1.078.2-2.218.3-3.421.3-.777 0-1.736-.093-2.876-.281-1.14-.188-2.256-.614-3.347-1.279-1.09-.664-2.005-1.685-2.744-3.064-.74-1.378-1.11-3.27-1.11-5.677v-2.519c-1.428-.276-2.85-.808-4.267-1.598-1.416-.79-2.713-1.968-3.891-3.534-1.178-1.567-2.118-3.647-2.82-6.241-.702-2.595-1.053-5.834-1.053-9.72V65.35c0-3.86.358-7.074 1.072-9.644.714-2.569 1.654-4.624 2.82-6.166 1.165-1.541 2.456-2.694 3.872-3.459 1.417-.764 2.839-1.265 4.268-1.504 1.428-.238 2.744-.357 3.947-.357 1.153 0 2.438.113 3.854.339 1.416.225 2.826.708 4.23 1.447 1.404.74 2.688 1.874 3.854 3.403 1.165 1.529 2.105 3.584 2.82 6.166.714 2.581 1.071 5.84 1.071 9.775v22.747c0 4.938-.589 8.854-1.767 11.749-1.178 2.895-2.657 5.038-4.437 6.43-1.78 1.39-3.571 2.311-5.376 2.763v.564c0 2.43.57 3.997 1.71 4.7 1.141.701 2.814 1.052 5.02 1.052h1.053c.35 0 2.676-.013 2.977-.038v5.264Zm-15.009-18.648c1.93 0 3.36-.727 4.287-2.181.927-1.454 1.39-4.173 1.39-8.159v-28.95c0-4.11-.463-6.937-1.39-8.478-.928-1.542-2.357-2.312-4.287-2.312-1.98 0-3.44.77-4.38 2.312-.94 1.541-1.41 4.367-1.41 8.478v28.95c0 3.986.47 6.705 1.41 8.159.94 1.454 2.4 2.18 4.38 2.18Z" fill="#000"/>
        <path d="M122.684 120.58c-1.228.552-4.381.927-5.459 1.128-1.078.2-2.218.3-3.421.3-.777 0-1.736-.093-2.876-.281-1.14-.188-2.256-.614-3.347-1.279-1.09-.664-2.005-1.685-2.744-3.064-.74-1.378-1.11-3.27-1.11-5.677v-2.519c-1.428-.276-2.85-.808-4.267-1.598-1.416-.79-2.713-1.968-3.891-3.534-1.178-1.567-2.118-3.647-2.82-6.241-.702-2.595-1.053-5.834-1.053-9.72V65.35c0-3.86.358-7.074 1.072-9.644.714-2.569 1.654-4.624 2.82-6.166 1.165-1.541 2.456-2.694 3.872-3.459 1.417-.764 2.839-1.265 4.268-1.504 1.428-.238 2.744-.357 3.947-.357 1.153 0 2.438.113 3.854.339 1.416.225 2.826.708 4.23 1.447 1.404.74 2.688 1.874 3.854 3.403 1.165 1.529 2.105 3.584 2.82 6.166.714 2.581 1.071 5.84 1.071 9.775v22.747c0 4.938-.589 8.854-1.767 11.749-1.178 2.895-2.657 5.038-4.437 6.43-1.78 1.39-3.571 2.311-5.376 2.763v.564c0 2.43.57 3.997 1.71 4.7 1.141.701 2.814 1.052 5.02 1.052h1.053c.35 0 2.676-.013 2.977-.038v5.264Zm-15.009-18.648c1.93 0 3.36-.727 4.287-2.181.927-1.454 1.39-4.173 1.39-8.159v-28.95c0-4.11-.463-6.937-1.39-8.478-.928-1.542-2.357-2.312-4.287-2.312-1.98 0-3.44.77-4.38 2.312-.94 1.541-1.41 4.367-1.41 8.478v28.95c0 3.986.47 6.705 1.41 8.159.94 1.454 2.4 2.18 4.38 2.18Z" fill="#FFF"/>
    </g>
</svg>
