<svg xmlns="http://www.w3.org/2000/svg" viewBox="0 0 600 600">
  <style>
    @media (prefers-color-scheme:dark){.dark{fill:#fff}}
  </style>
  <path fill-rule="evenodd" d="M545.13 472.993c-7.174-5.355-16.644-15.574-28.414-30.657 29.68-12.458 44.52-42.932 44.52-91.42V235.677c0-31.39-6.504-55.299-19.512-71.726-13.008-16.428-34.229-24.642-63.664-24.642-29.558 0-50.81 8.183-63.757 24.55-12.946 16.367-19.42 40.306-19.42 71.818v115.054c0 31.878 6.474 56.275 19.42 73.191 12.947 16.917 34.199 25.375 63.757 25.375.855 0 2.076-.03 3.664-.092 1.588-.06 2.748-.091 3.48-.091 14.77 21.98 28.272 38.15 40.507 48.513C470.724 560.378 389.99 600 300 600 134.315 600 0 465.685 0 300S134.315 0 300 0s300 134.315 300 300c0 64.425-20.308 124.106-54.87 172.993Zm-423.556-23.695c29.313 0 50.474-8.489 63.481-25.466 13.008-16.977 19.512-41.283 19.512-72.917V235.678c0-31.39-6.473-55.299-19.42-71.726-12.947-16.428-34.137-24.642-63.573-24.642-29.558 0-50.779 8.153-63.665 24.459-12.885 16.305-19.328 40.275-19.328 71.909v115.054c0 15.634 1.466 29.313 4.397 41.039 2.931 11.725 7.572 21.984 13.924 30.778 6.35 8.794 14.931 15.45 25.74 19.97 10.81 4.52 23.787 6.779 38.932 6.779Zm-20.702-37.008c-5.375-2.565-9.466-6.474-12.275-11.726-2.81-5.251-4.733-11.022-5.771-17.313-1.039-6.29-1.558-14.076-1.558-23.359V226.884c0-9.16.52-16.794 1.558-22.901 1.038-6.107 2.961-11.726 5.77-16.855 2.81-5.13 6.932-8.886 12.367-11.268 5.435-2.381 12.306-3.572 20.611-3.572 8.305 0 15.176 1.19 20.61 3.572 5.436 2.382 9.558 6.138 12.367 11.268 2.81 5.13 4.733 10.748 5.771 16.855 1.039 6.107 1.558 13.74 1.558 22.9v133.01c0 9.282-.52 17.068-1.558 23.358-1.038 6.29-2.961 12.062-5.77 17.313-2.81 5.252-6.932 9.16-12.367 11.726-5.435 2.565-12.306 3.847-20.611 3.847-8.305 0-15.206-1.282-20.702-3.847ZM218.38 446h42.32V303.648h78.047V446h42.321V142.242h-42.32v131.176h-78.047V142.242H218.38V446Zm238.976-33.71c-5.374-2.565-9.496-6.474-12.366-11.726-2.87-5.251-4.825-11.053-5.863-17.404-1.038-6.351-1.557-14.107-1.557-23.268V226.884c0-9.16.519-16.825 1.557-22.993 1.038-6.168 2.992-11.786 5.863-16.855 2.87-5.069 7.023-8.794 12.458-11.176 5.435-2.381 12.305-3.572 20.61-3.572 8.306 0 15.176 1.19 20.611 3.572 5.436 2.382 9.588 6.107 12.459 11.176 2.87 5.069 4.824 10.687 5.862 16.855 1.038 6.168 1.557 13.832 1.557 22.993v133.008c0 9.16-.519 16.917-1.557 23.268-1.038 6.351-2.992 12.153-5.862 17.404-2.87 5.252-7.023 9.16-12.459 11.726-5.435 2.565-12.305 3.847-20.61 3.847-8.306 0-15.207-1.282-20.703-3.847Z" class="dark"/>
</svg>
